<mxfile host="Electron" modified="2023-10-14T03:07:39.240Z" agent="Mozilla/5.0 (Windows NT 10.0; Win64; x64) AppleWebKit/537.36 (KHTML, like Gecko) draw.io/22.0.2 Chrome/114.0.5735.289 Electron/25.8.4 Safari/537.36" etag="tLKkqW_rSYDF9zT38xhJ" version="22.0.2" type="device">
  <diagram name="Página-1" id="JGfTU28RJ-UcixZ5ag7b">
    <mxGraphModel dx="1660" dy="800" grid="0" gridSize="10" guides="1" tooltips="1" connect="1" arrows="1" fold="1" page="1" pageScale="1.2" pageWidth="400" pageHeight="400" background="#ffffff" math="0" shadow="0">
      <root>
        <mxCell id="0" />
        <mxCell id="1" parent="0" />
        <mxCell id="SHFAngRMwkovwHlTtLld-5" value="" style="edgeStyle=orthogonalEdgeStyle;rounded=0;orthogonalLoop=1;jettySize=auto;html=1;strokeColor=#182E3E;fontColor=#1A1A1A;entryX=0;entryY=0.5;entryDx=0;entryDy=0;" parent="1" source="SHFAngRMwkovwHlTtLld-1" target="SHFAngRMwkovwHlTtLld-8" edge="1">
          <mxGeometry relative="1" as="geometry">
            <mxPoint x="204" y="145" as="targetPoint" />
          </mxGeometry>
        </mxCell>
        <mxCell id="g_PjMVmaI1N2kzE9wR9C-9" style="edgeStyle=orthogonalEdgeStyle;rounded=0;orthogonalLoop=1;jettySize=auto;html=1;entryX=0;entryY=0.5;entryDx=0;entryDy=0;strokeColor=#000000;" edge="1" parent="1" source="SHFAngRMwkovwHlTtLld-1" target="SHFAngRMwkovwHlTtLld-26">
          <mxGeometry relative="1" as="geometry">
            <mxPoint x="282" y="246" as="targetPoint" />
          </mxGeometry>
        </mxCell>
        <mxCell id="SHFAngRMwkovwHlTtLld-1" value="" style="shape=sumEllipse;perimeter=ellipsePerimeter;whiteSpace=wrap;html=1;backgroundOutline=1;labelBackgroundColor=none;fillColor=#FFFFFF;strokeColor=#000000;fontColor=#1A1A1A;" parent="1" vertex="1">
          <mxGeometry x="119" y="123.5" width="43" height="43" as="geometry" />
        </mxCell>
        <mxCell id="g_PjMVmaI1N2kzE9wR9C-7" style="edgeStyle=orthogonalEdgeStyle;rounded=0;orthogonalLoop=1;jettySize=auto;html=1;entryX=0;entryY=0.5;entryDx=0;entryDy=0;strokeColor=#000000;" edge="1" parent="1" source="SHFAngRMwkovwHlTtLld-6" target="g_PjMVmaI1N2kzE9wR9C-4">
          <mxGeometry relative="1" as="geometry">
            <Array as="points">
              <mxPoint x="813" y="144" />
              <mxPoint x="813" y="372" />
            </Array>
          </mxGeometry>
        </mxCell>
        <mxCell id="SHFAngRMwkovwHlTtLld-6" value="&lt;h2&gt;&lt;font style=&quot;font-size: 14px;&quot;&gt;Dinámica de EyasSat&lt;/font&gt;&lt;/h2&gt;" style="whiteSpace=wrap;html=1;fillColor=#FFFFFF;strokeColor=#000000;fontColor=#1A1A1A;labelBackgroundColor=none;" parent="1" vertex="1">
          <mxGeometry x="689" y="117" width="101" height="54.5" as="geometry" />
        </mxCell>
        <mxCell id="g_PjMVmaI1N2kzE9wR9C-14" style="edgeStyle=orthogonalEdgeStyle;rounded=0;orthogonalLoop=1;jettySize=auto;html=1;entryX=0;entryY=0.5;entryDx=0;entryDy=0;strokeColor=#000000;" edge="1" parent="1" source="SHFAngRMwkovwHlTtLld-8" target="SHFAngRMwkovwHlTtLld-23">
          <mxGeometry relative="1" as="geometry" />
        </mxCell>
        <mxCell id="SHFAngRMwkovwHlTtLld-8" value="&lt;h2&gt;&lt;font style=&quot;font-size: 14px;&quot;&gt;Modelo RW&lt;/font&gt;&lt;/h2&gt;" style="whiteSpace=wrap;html=1;fillColor=#FFFFFF;strokeColor=#000000;fontColor=#1A1A1A;labelBackgroundColor=none;" parent="1" vertex="1">
          <mxGeometry x="385" y="117.5" width="91" height="54" as="geometry" />
        </mxCell>
        <mxCell id="SHFAngRMwkovwHlTtLld-11" value="&lt;font style=&quot;font-size: 13px;&quot;&gt;&lt;b&gt;Torque RW&lt;/b&gt;&lt;/font&gt;" style="text;html=1;align=center;verticalAlign=middle;resizable=0;points=[];autosize=1;strokeColor=none;fillColor=none;fontColor=#1A1A1A;" parent="1" vertex="1">
          <mxGeometry x="508" y="114.25" width="86" height="28" as="geometry" />
        </mxCell>
        <mxCell id="SHFAngRMwkovwHlTtLld-13" value="&lt;font style=&quot;font-size: 13px;&quot;&gt;&lt;b&gt;Error&lt;/b&gt;&lt;/font&gt;" style="text;html=1;align=center;verticalAlign=middle;resizable=0;points=[];autosize=1;strokeColor=none;fillColor=none;fontColor=#1A1A1A;" parent="1" vertex="1">
          <mxGeometry x="169" y="117" width="50" height="28" as="geometry" />
        </mxCell>
        <mxCell id="g_PjMVmaI1N2kzE9wR9C-2" style="edgeStyle=orthogonalEdgeStyle;rounded=0;orthogonalLoop=1;jettySize=auto;html=1;entryX=0;entryY=0.5;entryDx=0;entryDy=0;strokeColor=#000000;" edge="1" parent="1" source="SHFAngRMwkovwHlTtLld-23" target="SHFAngRMwkovwHlTtLld-6">
          <mxGeometry relative="1" as="geometry" />
        </mxCell>
        <mxCell id="SHFAngRMwkovwHlTtLld-23" value="" style="shape=sumEllipse;perimeter=ellipsePerimeter;whiteSpace=wrap;html=1;backgroundOutline=1;labelBackgroundColor=none;fillColor=#FFFFFF;strokeColor=#000000;fontColor=#1A1A1A;" parent="1" vertex="1">
          <mxGeometry x="605" y="123.5" width="43" height="43" as="geometry" />
        </mxCell>
        <mxCell id="g_PjMVmaI1N2kzE9wR9C-10" style="edgeStyle=orthogonalEdgeStyle;rounded=0;orthogonalLoop=1;jettySize=auto;html=1;entryX=0;entryY=0.5;entryDx=0;entryDy=0;strokeColor=#000000;" edge="1" parent="1" source="SHFAngRMwkovwHlTtLld-26" target="SHFAngRMwkovwHlTtLld-29">
          <mxGeometry relative="1" as="geometry" />
        </mxCell>
        <mxCell id="SHFAngRMwkovwHlTtLld-26" value="" style="shape=sumEllipse;perimeter=ellipsePerimeter;whiteSpace=wrap;html=1;backgroundOutline=1;labelBackgroundColor=none;fillColor=#FFFFFF;strokeColor=#000000;fontColor=#1A1A1A;" parent="1" vertex="1">
          <mxGeometry x="300" y="218.5" width="43" height="43" as="geometry" />
        </mxCell>
        <mxCell id="g_PjMVmaI1N2kzE9wR9C-13" style="edgeStyle=orthogonalEdgeStyle;rounded=0;orthogonalLoop=1;jettySize=auto;html=1;entryX=0.5;entryY=1;entryDx=0;entryDy=0;strokeColor=#000000;" edge="1" parent="1" source="SHFAngRMwkovwHlTtLld-29" target="SHFAngRMwkovwHlTtLld-26">
          <mxGeometry relative="1" as="geometry">
            <Array as="points">
              <mxPoint x="513" y="240" />
              <mxPoint x="513" y="312" />
              <mxPoint x="322" y="312" />
            </Array>
          </mxGeometry>
        </mxCell>
        <mxCell id="g_PjMVmaI1N2kzE9wR9C-15" style="edgeStyle=orthogonalEdgeStyle;rounded=0;orthogonalLoop=1;jettySize=auto;html=1;entryX=0.5;entryY=1;entryDx=0;entryDy=0;strokeColor=#000000;" edge="1" parent="1" source="SHFAngRMwkovwHlTtLld-29" target="SHFAngRMwkovwHlTtLld-23">
          <mxGeometry relative="1" as="geometry" />
        </mxCell>
        <mxCell id="SHFAngRMwkovwHlTtLld-29" value="&lt;h2&gt;&lt;span style=&quot;font-size: 14px;&quot;&gt;Controlador en cascasda&lt;/span&gt;&lt;/h2&gt;" style="whiteSpace=wrap;html=1;fillColor=#FFFFFF;strokeColor=#000000;fontColor=#1A1A1A;labelBackgroundColor=none;" parent="1" vertex="1">
          <mxGeometry x="387" y="213" width="91" height="54" as="geometry" />
        </mxCell>
        <mxCell id="SHFAngRMwkovwHlTtLld-37" value="&lt;font style=&quot;font-size: 15px;&quot;&gt;&lt;b&gt;+&lt;/b&gt;&lt;/font&gt;" style="text;html=1;align=center;verticalAlign=middle;resizable=0;points=[];autosize=1;strokeColor=none;fillColor=none;fontColor=#1A1A1A;" parent="1" vertex="1">
          <mxGeometry x="295" y="225" width="27" height="30" as="geometry" />
        </mxCell>
        <mxCell id="SHFAngRMwkovwHlTtLld-38" value="&lt;font style=&quot;font-size: 15px;&quot;&gt;&lt;b&gt;-&lt;/b&gt;&lt;/font&gt;" style="text;html=1;align=center;verticalAlign=middle;resizable=0;points=[];autosize=1;strokeColor=none;fillColor=none;fontColor=#1A1A1A;" parent="1" vertex="1">
          <mxGeometry x="308" y="236.99999999999994" width="23" height="30" as="geometry" />
        </mxCell>
        <mxCell id="SHFAngRMwkovwHlTtLld-42" style="edgeStyle=orthogonalEdgeStyle;rounded=0;orthogonalLoop=1;jettySize=auto;html=1;entryX=0;entryY=0.5;entryDx=0;entryDy=0;strokeColor=#182E3E;fontColor=#1A1A1A;" parent="1" source="g_PjMVmaI1N2kzE9wR9C-17" target="SHFAngRMwkovwHlTtLld-1" edge="1">
          <mxGeometry relative="1" as="geometry" />
        </mxCell>
        <mxCell id="SHFAngRMwkovwHlTtLld-40" value="" style="shape=image;verticalLabelPosition=bottom;labelBackgroundColor=default;verticalAlign=top;aspect=fixed;imageAspect=0;image=data:image/png,iVBORw0KGgoAAAANSUhEUgAAAJEAAACQCAMAAAA/Wnm0AAAAAXNSR0IArs4c6QAAAARnQU1BAACxjwv8YQUAAABjUExURQAAAAAAAAAAAAAAAAAAAAAAAAAAAAAAAAAAAAAAAAAAAAAAAAAAAAAAAAAAAAAAAAAAAAAAAAAAAAAAAAAAAAAAAAAAAAAAAAAAAAAAAAAAAAAAAAAAAAAAAAAAAAAAAAAAAGZodN4AAAAgdFJOUwAIEBggKDA4QEhQWGBocHiAh4+Xn6evt7/Hz9ff5+/3v+H4wgAAAAlwSFlzAAAXEQAAFxEByibzPwAABdNJREFUeF7tmulyozoQhY1X7MQevOMV3v8pB53TRi0QGVVdm1C39P1JmjjQ9HLUUjKKRCKRSCQSiUQivbPNDWOxhsCzrHiIMQSmxqHyJNYQ+IJHG7GGwA4epWINgatxqEjEGgBJYTy6ijUEFsahcifWENjAo2+xhsAJHk3FGgJ349BTjCEwQYiGpI8rePRHrCEwPH3M4dGA9HH0m/q4OFRtdT1OxCRzhGgv1ijNQC+z0uSMZ1eD0EKugIY+UpxK5yMfYoWxDDgpOuDSTCyuumX5JeYH+cMnkbVcNNzMBauP7LwyE/NzbKunXDap+VKhVtUxLlh9pDr14NH4Wm7NVyZFCTQ9sA7Qw/Ig5gcZszIYpBzfgwwXlmJV0OcePBLokYoRG1A1OwWzv2mJnaUigA7UzXfEJ/pb5pgTu+2gPuoc0efe5rcEj1PL6jds/XwWVm8Lb4rHqWV1D3suloGCVCvmp2EAVNkgi878yKz1dgbQbCSqz1kswI+I8V7S7Iy75/s6SdyZlSsxX1l0BBpRu4nxTlK+q8EeekgZ2ZRwtbMeVmAfUA8nb2MMfy473N7qIR1QZcTZwykaXFEa/h4S49DVJGtdfWPVjg4oPYY+OilCGJ9vn3HN0nDlm1dRstqCkKnZhwdHzhqG5j+K8TaweEngv9SEKuu61RoeHOlpiU6/e15DR/m6ZWmeptWHaqj1EatK8W41wuTsOzEzRVXVu1gV6PRCDAAJfff+NnmYu/oOFqjY9nmUJzUsjcbmdwsdtHeA4riL4dAcRXhwhNlSQBobs9F3fr2fayfn2/zxzPPWXuUry/Pikm89kZiyo7ntcsdlemSvcWOk9HFmgvZwWn+FiJcFG3Ymm6eGYM0PdqPjius0y6xUG9xQNWPU0kdccBpNtiYiqyuuQhW69hPZT+T8qRMFvrTCrVHWka1sdLpyGsOSLqsEwsb3r3bCdoelOzlFFPcmiPyAnmRWVZ74VsxZ5g5eXNbq7ufBkQ0ZHHqq+xmH7otRgpZcmBe6rUZLs8FTorpEpiWLCLKjbxV4rLNrrUn4tq/C4caolglE8Kn7bFGU+GMJsjKtOmZnSsx0jtUWOHR9HSVAX5q7Bty4Y+1m2h5SBI4+shju7uy4PKHKzY+eaSEVYpS/brWpcaiofwse6eY1IHAdgzulqjzRJTSBHKxv8JO7/3iU2xN3/RNwD/s0fLKZNWSmS+PmzNsT90BrmEKefHMJroPfgBuYm2cgQCmrERS3d+MsC5MYbeY4eKh8OmdcU87ZmYEri61uaQU3MDY1FhamfX1kXjerodXBDZItVaPFsfNAmy3q2+VCbWo1SVCYrTUIKuj77ZrJljnSPHzq/wKpKXwZRTqlipI1blu0xk98yBmcPczWu/zl1iU/rD0JUaBXfN2LCnkkSZputhfzfXW31q04lP3wwjWe+bEDFItvk9taInLPqAfVC/qLa/AfHhkJMRy4Lgr3oz/U0MCgicvRx59AT3onbwRvh9Wq+yQVihV01ML50aMxTdArvlhSFTokowZuh+y2OD+qCbcTtIAvBqxEMbrgcdC/3DYE/+GRE4IvltCpbjEmqP6gTXtrfuwCveKdJXwxanU5ch7S0dInATKBDvDPEki8c4t9S7GR84COlk+GyITW5QZYI5UEJdVrPt2XpD4GdHT4P2awofy3xOxhE7owHjaiiZwH/SsB58cAmfipfLF1KQ98XupVCeTcP9E2oD76loYGkNyuWYKbkPs5k2Xy2VpFoI8BHf062wuIJk7gu26ZyPoqHFqyQ9XrmGgd+MmQaEJyu0WCkzs4eiJOfQxZ+PnJjv2BZoxNVse0a1hkp2v5yM9rryxD9bw7/iaT1BDi+38Dqhekjz3BOTykjPoCR2hD+scmJi2o93sC/ePdMvwW0LLmnvsXmUA+86FU0T7n1vwcMj32AtYEOV8YBKamb/lPWt87sz7+8SQSiUQikUgkEolEIpFIJBKJRCKRSCTyP2A0+gvoQtCMheuMvQAAAABJRU5ErkJggg==;" parent="1" vertex="1">
          <mxGeometry x="-45" y="120.84" width="47.16" height="46.83" as="geometry" />
        </mxCell>
        <mxCell id="SHFAngRMwkovwHlTtLld-49" style="edgeStyle=orthogonalEdgeStyle;rounded=0;orthogonalLoop=1;jettySize=auto;html=1;strokeColor=#182E3E;fontColor=#1A1A1A;" parent="1" source="SHFAngRMwkovwHlTtLld-48" target="SHFAngRMwkovwHlTtLld-23" edge="1">
          <mxGeometry relative="1" as="geometry" />
        </mxCell>
        <mxCell id="SHFAngRMwkovwHlTtLld-48" value="&lt;h2&gt;&lt;span style=&quot;font-size: 14px;&quot;&gt;Perturbaciones&lt;/span&gt;&lt;/h2&gt;" style="whiteSpace=wrap;html=1;fillColor=#FFFFFF;strokeColor=#000000;fontColor=#1A1A1A;labelBackgroundColor=none;" parent="1" vertex="1">
          <mxGeometry x="560.5" y="30" width="132" height="53" as="geometry" />
        </mxCell>
        <mxCell id="SHFAngRMwkovwHlTtLld-56" value="&lt;font style=&quot;font-size: 13px;&quot;&gt;&lt;b&gt;Torque Mgt&lt;/b&gt;&lt;/font&gt;" style="text;html=1;align=center;verticalAlign=middle;resizable=0;points=[];autosize=1;strokeColor=none;fillColor=none;fontColor=#1A1A1A;" parent="1" vertex="1">
          <mxGeometry x="517" y="213" width="88" height="28" as="geometry" />
        </mxCell>
        <mxCell id="SHFAngRMwkovwHlTtLld-58" value="&lt;font style=&quot;font-size: 15px;&quot;&gt;&lt;b&gt;+&lt;/b&gt;&lt;/font&gt;" style="text;html=1;align=center;verticalAlign=middle;resizable=0;points=[];autosize=1;strokeColor=none;fillColor=none;fontColor=#1A1A1A;" parent="1" vertex="1">
          <mxGeometry x="113" y="129.5" width="27" height="30" as="geometry" />
        </mxCell>
        <mxCell id="SHFAngRMwkovwHlTtLld-59" value="&lt;font style=&quot;font-size: 15px;&quot;&gt;&lt;b&gt;-&lt;/b&gt;&lt;/font&gt;" style="text;html=1;align=center;verticalAlign=middle;resizable=0;points=[];autosize=1;strokeColor=none;fillColor=none;fontColor=#1A1A1A;" parent="1" vertex="1">
          <mxGeometry x="127" y="142.25" width="23" height="30" as="geometry" />
        </mxCell>
        <mxCell id="g_PjMVmaI1N2kzE9wR9C-8" style="edgeStyle=orthogonalEdgeStyle;rounded=0;orthogonalLoop=1;jettySize=auto;html=1;exitX=1;exitY=0.5;exitDx=0;exitDy=0;entryX=0.5;entryY=1;entryDx=0;entryDy=0;strokeColor=#000000;" edge="1" parent="1" source="g_PjMVmaI1N2kzE9wR9C-4" target="SHFAngRMwkovwHlTtLld-1">
          <mxGeometry relative="1" as="geometry">
            <mxPoint x="136" y="185" as="targetPoint" />
          </mxGeometry>
        </mxCell>
        <mxCell id="g_PjMVmaI1N2kzE9wR9C-4" value="" style="triangle;whiteSpace=wrap;html=1;fillColor=none;strokeColor=#000000;rotation=-180;" vertex="1" parent="1">
          <mxGeometry x="498" y="343" width="66" height="58" as="geometry" />
        </mxCell>
        <mxCell id="g_PjMVmaI1N2kzE9wR9C-5" value="&lt;font color=&quot;#000000&quot;&gt;K&lt;/font&gt;" style="text;html=1;align=center;verticalAlign=middle;resizable=0;points=[];autosize=1;strokeColor=none;fillColor=none;" vertex="1" parent="1">
          <mxGeometry x="528" y="360.83" width="26" height="26" as="geometry" />
        </mxCell>
        <mxCell id="g_PjMVmaI1N2kzE9wR9C-18" value="" style="edgeStyle=orthogonalEdgeStyle;rounded=0;orthogonalLoop=1;jettySize=auto;html=1;entryX=0;entryY=0.5;entryDx=0;entryDy=0;strokeColor=#182E3E;fontColor=#1A1A1A;" edge="1" parent="1" source="SHFAngRMwkovwHlTtLld-40" target="g_PjMVmaI1N2kzE9wR9C-17">
          <mxGeometry relative="1" as="geometry">
            <mxPoint x="12" y="145" as="sourcePoint" />
            <mxPoint x="119" y="145" as="targetPoint" />
          </mxGeometry>
        </mxCell>
        <mxCell id="g_PjMVmaI1N2kzE9wR9C-17" value="" style="triangle;whiteSpace=wrap;html=1;fillColor=none;strokeColor=#000000;rotation=0;" vertex="1" parent="1">
          <mxGeometry x="34" y="124" width="46.66" height="41" as="geometry" />
        </mxCell>
        <mxCell id="g_PjMVmaI1N2kzE9wR9C-20" value="&lt;font color=&quot;#000000&quot;&gt;Estados&lt;/font&gt;" style="text;html=1;align=center;verticalAlign=middle;resizable=0;points=[];autosize=1;strokeColor=none;fillColor=none;" vertex="1" parent="1">
          <mxGeometry x="739.4" y="178" width="61" height="26" as="geometry" />
        </mxCell>
        <mxCell id="g_PjMVmaI1N2kzE9wR9C-21" value="" style="shape=image;verticalLabelPosition=bottom;labelBackgroundColor=default;verticalAlign=top;aspect=fixed;imageAspect=0;image=data:image/png,iVBORw0KGgoAAAANSUhEUgAAAP8AAAF8CAYAAAAAW20IAAAgAElEQVR4nO3deVhU9f4H8PcMwzYY4oKIRe6aIAoqrqGIZrlV11vZwnW3fEwjc0lvBlKp1b2ZN9NcuqhZWbmluaRmglrClRTTMDMNQxZlEQIBkeH8/vBhfp6ZAWbOYXHm+349D8/D93C+n/MFfc853zPnnNFIkiSBiISjbegBEFHDYPiJBMXwEwmK4ScSFMNPJCiGn0hQDD+RoBh+IkEx/ESCYviJBMXwEwmK4ScSlE5tgdzcXMyfP782xmJm4cKFaN26dZ3UJrobbN++Hfv27av1un5+foiKiqp2HY3au/ouX76MNm3aqClRpaSkJPTs2bNOahPdDRYsWIC333671usGBQXh1KlT1a7Dw34iQTH8RIJi+IkEVSfhj4qKQnl5ueovzvfJ0S1evLhWshIQEGDztlWf7bdEq9XCycmpLkoTORSttnb2vxqNxvZt18qWicjuMPxEgmL4iQTF8BMJiuEnEhTDTyQohp9IUAw/kaAYfiJBMfxEgmL4iQTF8BMJiuEnEhTDTyQohp9IUAw/kaAYfiJBMfxEgmL4iQTF8BMJiuEnEhTDTyQohp9IUAw/kaAYfiJBMfxEgmL4iQTF8BMJiuEnEhTDTyQohp9IUAw/kaAYfiJBMfxEgmL4iQTF8BMJiuEnEhTDTyQohp9IUAw/kaAYfiJBMfxEgmL4iQTF8BMJiuEnEhTDTyQohp9IUAy/AyotLUVCQkK9bS8zMxNRUVFYvHgxLl26VG/bJXV0DT0Aql0VFRUYMWIEDh8+jM2bN+Ppp5+u0+2lpqaib9++uHr1KgBg1apVSEpKgq+vb51ul9Tjnt/BrFmzBocPH4arqyt69OhR59ubM2eOMfgAkJGRgdjY2DrfLqnH8DuQwsJCREdHAwDeeOMNdOrUqc63efr0abNlcXFxdb5dUo/hdyDvvvsusrOzERoaijlz5tTLNidPnmy2LDs7u162Teow/A4iIyMDy5Ytg7u7O2JjY6HV1s8/7auvvorRo0fLljk7O9fLtkkdht9BxMTEoLi4GAsWLECHDh3qbbsajQYff/wxPD09jcuaNm1ab9sn5Rh+B1BQUIBNmzbBz88Pc+fOrfftt2jRAtOnTze227VrV+9jINsx/A7giy++QElJCaKiouDm5tYgY3jyySeN33fu3LlBxkC2YfgdQGxsLLy9vTF+/PgGG0NQUBB0utuXjfTq1avBxkHWY/jt3C+//IL//e9/iIiIUHyizWAwYM+eParO0mu1WrRs2RJarRbBwcGK61D9Yfjt3CeffAIAmDBhguIa06dPx6hRo/DEE0+oGotWq4W/vz88PDxU1aH6wfDbuUOHDqFHjx7o1q2bov5ZWVn473//CwAoKSlRPI7y8nKkp6cjJCREcQ2qXwy/HSsqKkJycjKeeeYZxTX27t0Lg8EAQN2Jul9++QUGgwFDhgxRXIPqF8Nvx3788UcYDAYMGDBAcY0jR44Yvw8LC1NcZ//+/dBoNHjooYcU16D6xfDbsSNHjkCn0yEoKEhxjR9//NH4/bBhwxTX2b17N4KDg9GiRQvFNah+Mfx27Pjx4/Dx8YG7u7ui/qWlpbh48SKA22/P+fn5Kapz6dIlHDt2TNWLB9U/ht+OpaWloVmzZor7nz9/HhUVFQCAsWPHKq4TGxsLSZLMrvGnuxvDb8euXbuGRo0aKe6fmpoKAHByclL80I/i4mKsXr0afn5+6Nevn+KxUP1j+O3UzZs3UVBQgLy8PMU1MjIyAABDhw7Ffffdp6jGqlWrkJubi4iICGg0GsVjofrH8Nupyqvx7nyKji0KCgqwePFiAFD8AnLlyhXExMRAq9Vi6tSpimpQw2H47VRlYK9fv46srCyb+0dGRiI9PR0AkJSUpOjS3sjISBQVFSEiIgJt27a1uT81LIbfTt15om/z5s029V24cCE2btxobEuShK+++sqmGsuXL8f27duh0+kQFRVlU1+6OzD8dsrHx8f4tJ6NGzdCkiSr+r355pvGw/07H/AZHR2N3Nxcq2ps2rQJr7zyCgBg0qRJaN++vS1Dp7sEw2+ndDodWrZsCeD2QzRfeOGFal8A0tLSMHLkSONeWq/XY8uWLcbg5ubmYvLkySgqKqqyRnl5OZYsWYJJkyZBkiQ0atQICxcurMXfiuoTw2/HRo0aZfx+3bp1mDRpknEeXykzMxPvvPMO/P39sXfvXuPyf/3rX2jXrh0GDx5sXLZz504EBwfjwIEDsheBiooKHD58GCEhIXjttddQXl4OAMa3+MhOSSqlpqZKAGRfixYtUluWrHDs2DGzv72Tk5PUoUMHqW/fvlK7du0krVZrts68efOMNRISEiSNRmO2jkajkdq1ayeFhIRIzZo1M/v5888/34C/OZnq2rWr7N8nKCioxj4Mv5174IEHzP7+1X1NmTLFrMakSZNsqtGjRw+ppKSkAX5bqoqS8POw386tX7/eqif4NG7cGGvWrMHatWvNfvb222+je/fuVm0vLCwMhw4darBnBVLtYfjtXN++fXHgwAH4+PhY/LlGo8GYMWOQkpKC559/3uJVeN7e3khISJA9gddU48aNsWzZMhw8eBBeXl61Nn5qOPygTgcQFhaG1NRUfPXVVzh16hSys7PRokULdOzYEaNHj7bq0l03NzesXLkS06dPxzfffIM//vgDN27cQKtWrRASEoJRo0YpvnuQ7k4Mv4Nwc3PDuHHjMG7cOFV1AgICEBAQUEujorsZD/uJBMXwEwmK4ScSFMNPJCiGn0hQDD+RoBh+IkEx/ESCYviJBMXwEwmK4ScSFMNPJCiGn0hQDD+RoBh+IkEx/ESCYviJBMXwEwmK4ScSFMNPJCiGn0hQDD+RoBh+IkEx/ESCYviJBMXwEwmK4ScSFMNPJCiGn0hQDD+RoBh+IkEx/ESCYviJBMXwEwlKdfglSTJbVl5errYsEdmgoqKi2rYl3PMTCUp1+DUajdkynU6ntiwR2UCr1VbbttinrgZDRHc3hp9IUAw/kaAYfiJBMfxEgmL4iQTF8BMJiuEnEhTDTyQohp9IUAw/kaAYfiJBMfxEgmL4iQTF8BMJiuEnEhTDTyQohp9IUAw/kaAYfiJBMfxEgmL4iQTF8BMJiuEnEhTDTyQohp9IUAw/kaAYfiJBMfxEgmL4iQTF8BMJiuEnEhTDTyQohp9IUAw/kaAYfiJBMfxEgmL4iQSlU1vA29sbn3/+uWxZ165d1ZYlIhssXboUhYWFxraXl1eNfTSSJElqNnr58mW0adNGtmzRokWIjo5WU5aIbBAYGIizZ88a20FBQTh16lS1fXjYTyQohp9IUAw/kaAYfiJBMfxEgmL4iQTF8BMJiuEnEhTDTyQohp9IUAw/kaAYfiJBMfxEglJ9Sy85joyMDJw+fRrnz59HVlYWOnbsiP79+6NLly5V9omPj4enpyeCg4PrcaRUG7jnJxw9ehRjxoyBn58fRowYgaioKHz77bd45ZVX0LVrV0ycOBHXr1836/fBBx9g8ODB+Pbbbxtg1KQWwy+wrKwsDBs2DAMHDsSOHTswaNAgJCUlIT8/H8nJycjPz8cXX3yBPXv2YOTIkSguLjb2Xb16NSIjIyFJEgYNGtSAvwUpxfALat++fejWrRsOHjwInU6HdevW4fvvv0fPnj2h1d7+b6HRaPDkk09ix44d+OmnnzBz5kwAwMGDBzFjxgwAgF6vR0hISIP9HqQcwy+gjz/+GCNHjkR2djY0Gg3Wr1+PKVOmVLn+gAEDsHz5cmzcuBHHjx/HxIkTYTAYAAD9+vWDs7NzfQ2dahHDL5jPP/8cL7zwAiqf3rZs2TJERETU2G/y5Mnw8vLCkCFDkJ6eblweFhZWZ2OlusXwC2Tv3r0YP348KioqAADh4eF4+eWXrerr4uKCp59+GiUlJbLlnO/bL4ZfENeuXcOECRNQXl4OAHB2dsaHH35oU42+ffvK2m5ubujdu3etjZHqF8MviOeffx7Z2dnGdmRkZLXv31vy559/ytp9+/aFq6trrYyP6h/DL4DPPvsMO3fuNLadnZ0xZ84cm+scOnRI1uZ8374x/A6uoqICMTExsmUjRoyAj4+PTXXKyspw/Phx2TLO9+0bw+/gtmzZggsXLsiWjR071uY6iYmJspN9Li4uZucAyL4w/A5uyZIlsraTkxOGDx9uc524uDhZu0+fPnBzc1M1NmpYDL8DO3PmDH7++WfZsn79+ln1OW6mTMPP+b79Y/gd2N69e82WKdnrc77vmBh+B2Yp/A8//LDNdRISEmTzfWdnZ/Tr10/V2KjhMfwOqrS0FD/++KNsmV6vR/fu3W2uZXrIHxISAr1er2p81PAYfgeVkZFhvJqvUs+ePaHT2f78FtPw85DfMTD8DiozM9NsWZ8+fWyuc/PmTbP5Pk/2OQaG30FZCn+vXr1srpOYmIjS0lJjW6fToX///qrGRncHht9B3RnYSp07d7a5jukhf8+ePdGoUSPF46K7B8PvoJo2bWq2rHXr1jbX4XzfcTH8DsrX19dsWePGjW2qUVBQgB9++EG2jPN9x8HwO6jAwEB4eHjIlt35AE5rxMbGoqyszNh2cnLCgAEDamV81PAYfgel0+kQGhoqW3bn47dqcu7cObz++uuyZcHBwfD09KyV8VHDUx3+ymfB3cn0/WVqGNOmTZO1L126ZFW/zMxMDB8+HDdu3JAt53z/7lX5aLaq2paoDv/NmzfNluXn56stS7Vg9OjRsiv6Nm3aVGOfP/74A+Hh4XB1dYVGo5H9jPP9u5fpsxWtmeKpDr+l2zqbN2+utizVAq1Wi02bNhn/jbZt24aLFy9WuX5cXBz69u0LFxcXLFu2THZUp9Vq8eCDD9b5mEkZ0/M71rwdyzm/gwsMDMTOnTuh1+tRVlaGQYMG4cyZM7J1UlJS8OSTT2Lw4MEYPnw4jh8/jnPnzsnW6d69u6JbgenuxfALYNiwYUhMTERoaCjS09PRrVs3dOzYEUOHDkXz5s0REBCAy5cvY/fu3diwYQP0ej0OHz4sq8H5vuPhp/QKomvXrjhy5AiSk5Oxe/dupKamwsnJCY8//jh69uwpu0XXYDDg6NGjsv4Mv+Nh+AUTFBSEoKCgatdJSkpCYWGhsa3RaMzeNiT7x8N+MmN6yB8YGIhmzZo10GiorjD8ZIbX84uB4SeZW7du4dixY7JlDL9jYvhJ5sSJE7Ir+zQaDQYOHNiAI6K6wvCTjOl839/fH97e3g00GqpLDD/JcL4vDoafjMrKysye+MvwOy6Gn4y2bdtmdkMI5/uOi+En5Ofn4+uvv8bs2bPNfnbixAnZAz3IcfAKPwFlZ2fjkUcewaVLl1BSUmLxtuxKjz76KLRaLe655x64ublh2LBh+OSTT+pxtFRXGH4B5eXl4dy5czAYDPDw8IC3t3eVH+ZRUVGB4uJi3LhxA4WFhdBqebDoKBh+AXXu3Nnm5/mR4+HLOJGgGH4iQTH8RIJi+IkExfATCYrhJxIUw08kKIafSFAMP5GgGH4iQTH8RIJi+IkExfATCYrhJxIUw08kKIafSFAMP5GgGH4iQTH8RIJi+IkExfATCYrhJxKU6kd3a7Va9OnTR7bM09NTbVkiskGnTp3g4eFhbN9///019lEd/oqKCiQmJsqWDR8+XG1ZIrLBb7/9hrNnzxrb1X0KUyUe9hMJiuEnEhTDTyQohp9IUAw/kaAYfiJBMfxEgmL4iQTF8BMJiuEnEhTDTyQohp9IUAw/kaAYfiJBMfxEgmL4iQTF8BMJiuEnEhTDTyQohp9IUAw/kaAYfiJBMfxEgmL4iQTF8BMJiuEnEhTDTyQohp9IUAw/kaAYfiJBMfxEgmL4iQTF8BMJiuEnEhTDTyQohp9IUAw/kaB0DT0Ae1dYWIicnBxcu3YNV65cwdWrV3Ht2jU0adIEkZGRDT08oiox/AosXLgQn376KTIzM1FWVmZxHQ8PD7z00kvQaDT1PDoi6zD8Cnz99de4fPlytev07t2bwae7Guf8CiQmJuLixYs4c+YM9u3bh7Fjx5qtM3jw4AYYGZH1uOdXwMPDA+3atQMAdO3aFR06dMCXX34pWycsLKwhhkZkNe75a8G5c+dkbTc3N/Tu3buBRkNkHYa/FsTFxcna/fv3h6urawONhsg6DH8tMA0/D/nJHjD8KuXn5yM5OVm2jOEne8Dwq3T06FFUVFQY25zvk71g+FXifJ/sFcOvEuf7ZK8YfhU43yd7xvCrcOTIEc73yW4x/Cpwvk/2jOFXgfN9smcMv0LXr1/H6dOnZcsYfrInvLFHIWvf309LS0NSUhIuX76MK1euwMPDA35+fhg4cCA6depUn0MmkmH4FTp8+LCsbTrf3759O9atW4cDBw7A1dUV9957Lxo1aoRz587h5s2bAIAnnngCK1asQMuWLet17EQAD/sVq2q+n5mZiREjRuDvf/879Ho9Dh48iIKCAly4cAGnTp3CX3/9haVLl0Kj0WDr1q3o0qUL4uPjG+JXIMEx/Apcv34dP//8s2xZWFgYjhw5gsDAQPz555/47rvvsG3bNoSHh8PZ2dm4nouLC+bPn4+JEycCuH2twJQpU4xHA0T1heFXwNL7+wAwatQo9O/fHydPnsSQIUOqrTFlyhTj97///jvef//9uhksURUYfgVMD/mbNWuGxx9/HOHh4di6dStcXFxqrPHAAw/I2t9//32tjpGoJgy/AqbhT09Ph5+fH7788kurgg8ATZo0gVb7/3/+lJSUWh0jUU0Yfhvl5eWZzff1ej2++OILm67uKyoqkk0d0tPTcevWrVobJ1FNGH4bmc73ASAmJsbsML4mpo/+1uv1shODRHWN7/PbyPSQv3Xr1oo+mefMmTOydps2bVSNCwCuXLmC2NhYFBYW2tzXxcUFXl5e8Pb2RmBgIAICAownMqtTWFiIFStWoKKiAh4eHnB1dYVWq5V9ZkFJSQkKCgpQXl6OWbNmoWnTpmZ10tPTsXr1ari7u0Ov18PFxQVOTk6ydYqLi1FQUAAAmDt3Ljw8PKoc165du3DixAncc889cHd3h06ng0ajgSRJKCsrQ35+PoYOHYoBAwZY+ydyOAy/jUzDP378eEV77GPHjsnaQUFBqsYFAL/99htWrVqFgoIClJaWWlzHyckJer1eFqyysjIUFxfL1tPr9Rg5ciSmTp2Khx56qMptpqenY8WKFcjLy6vy04sAQKvVwtfXF2PHjrUY/gsXLmDdunXIy8urdvqj0+lw7733YtKkSdWGf8OGDdixY0eVP9fr9WjVqpXQ4YekUmpqqgRA9rVo0SK1Ze9Kubm5kkajkf2uCQkJimp16dJFVmfVqlW1OtaysjJp3rx5sm2EhoZKRUVFFtcvKSmR0tLSpK1bt0oRERGSh4eHsd/gwYOlP//8s8ZtxsfHm/1feO6556Rff/1VunXrltVj37x5s1mdmTNnSqmpqVJFRYXVdbKysqSPPvpIcnJyMtZ56qmnpJMnT0oGg8HqOvaga9eusr9XUFBQjX0Yfhvs2LFD9ns2btxYKi8vt7lORkaG2d/s999/r/XxzpkzR7aN9evXW903OTlZatWqlbGvt7e3dPbs2Rr7eXp6yrZ58eJFm8ddWlpq9vcpKCiwuU6lbt26SQCkt956S3GNu52S8POEnw1MD/kffPBBs3mpNQ4dOiRrt2/fHu3bt1c1NktMxxseHm513+7du+Pw4cPGtyOzs7Px2GOPVTmdqOTr6ytr5+fnW73NSq6urmZTg6ysLJvrAEBOTg7Onz+PadOm4bXXXlNUw1Ex/DYwvZln4MCBiurs3r1b1n744YcVj6kqf/31F06dOmVst2vXDvfff79NNTp16oR+/foZ2xcvXsRnn31WbR/Tm5SuXr1q0zYrtWjRQtZWGv7o6Gj4+vri3//+t6L+jozht1Jubq7ZGfpBgwbZXKe0tBR79uyRLRs5cqSqsVly9OhRGAwGY1vpswbuu+8+Wdv0aMKU6Z4/MzPT5m2mpaXh0qVLsmVKwn/69GmsWbMGK1asqPbkoKgYfisdOXIEkiQZ23q9Hj169LC5zoEDB1BUVGRsN2nSpNqz6UqZhlTJCxVgvue+fv16teub7vmVhHb27Nlm7xwoqTNjxgw8/PDDGDVqlM19RcDwW8k0TAMGDFD0Ft+2bdtk7TFjxtTJxT21EX6DwWB2tFPTA0jUhv/QoUPYsWMHhg4dKltu6xHEpk2bcOLECfznP/+xqZ9IGH4r1cbz+m7evImdO3fKlo0dO1bVuCwxne+3bdsWrVu3trlOfHw8cnNzZcuee+65avuoOey/desWZs6cienTp2PYsGGyn9nyIvLXX39h3rx5mDt3Ljp06GB1P9Ew/Faorfn+nj17jFeoAbdPag0ePNjiuuXl5YpPltXWfP+9996TtSMiItCzZ89q+6jZ8y9fvhw5OTmIiYlRVScmJgYuLi5YsGCB1X1ExPBbIT4+Xjbfd3d3R0hIiM11Pv30U1n72WefhU5n+SLL2bNnm+39rFUbh/z79u3D3r17je1evXph5cqVNfYzDa21e/6MjAy88cYbePvtt+Hl5WV2BGFt+FNSUvDBBx/g/fffh16vt6qPqBh+K1h6Pr+1t+5Wun79utlZ/nHjxllc12AwYMuWLTXuZauidoqSkJAgm46MHj0aBw8ehKenZ419lR72z5kzB/7+/sYnHCnd88+cORNhYWEYM2aMVeuLjNf2W6E25vvbtm2TncEODAxEcHCwxXX379+PzMxMPP744zZvx3S+37p1a6vn+yUlJXjvvfewdOlSFBcXw8fHBx988AGeeuopq7ffvHlz6HQ6lJeXA7h9M05RUREaNWpUZZ/4+Hh8+eWXSEhIMN4QZBr+a9euwWAwVHtR1ZYtW3D06FGzW67JMoa/Bjk5OTh79qxsmdLw3+npp5+uct0NGzbA29sbw4cPt3k7pvP9qs4pAIAkSUhLS8Pp06exd+9ebNmyBbm5ubj//vsRERGBOXPmoEmTJjZtX6PRoEWLFsjIyDAuy8zMRMeOHS2uX15ejhkzZmDy5MmyqVSzZs3g7OxsvMmnoqICOTk58PHxsVjnxo0bmD17NmbNmmXz7dWiYvhrYPr+vtLP4zM9YfjII49YXC8nJwe7du3CggULFL0FaHqU8tVXX5ldUQjcfuehqKhI9ruNGzcOkydPRmhoqOyWXFv5+vrKwp+VlVVl+D/88EOkp6djyZIlsuUajQY+Pj64cuWKrE5V4V+8eDEMBgNef/11xeMWDcNfg9qY7wO3D8crabVa+Pv7W1xv3rx5cHFxwcyZM23eBmA+3jVr1sDd3V22TJIkZGdn48KFCzhx4oTx9uJDhw4hNDRU8WXLlaydr2dlZSE6OhpLlixB8+bNzX7u6+srC39mZia6d+9utt6FCxfw3nvvYePGjdVOL0iO4a9BbV0pFxAQgISEBAC333e39KCM+Ph4rF+/HitXrrR4z3tNTOf7/v7+iIiIqLHfnj17MGHCBKSnp2Pq1Kk4ceIE1qxZY/P2K1l7xn/evHlo27Ytpk2bZlWdql5EIiMj0a9fv2qnUmSOZ/urUVvzfQCyR3lbus48IyMDEydORHh4eJVhqInpfN/aF6qRI0fio48+MrbXrl2LzZs3KxoDYH7G31Jof/jhB3z66adYsWJFlSfxrKmza9cuHDx4ECtWrFA8XlEx/NU4efKk2Xy/T58+imotWLDAeFfdb7/9JvuPHBcXhwEDBqBp06bYsWOH7Km+tlBzlPLEE0/Ay8vL2FZzF1xNe2yDwYAXX3wRzz77LEJDQxXXKS0txcsvv4wZM2YgMDBQ8XhFxfBXw/Q/36uvvmrTE3rv5OHhgX379iE4OBilpaXo1asXHn30Ufj7+yM8PBwPPfQQvvvuO6veS6+KafhtnbvfeQdfSkqK7CjCFjW91//RRx/h4sWLePfdd6utU1P433nnHRQXF2PRokWKxik6zvmr0a1bN3z++ef47rvv0KdPH0ydOlVVPX9/fyQmJuKbb77ByZMnkZmZiSFDhiAsLMziiSxbmM73O3bsaBbC6kiShNTUVGO7tLQUN2/eVHSVXHWhzc7Oxuuvv47o6Gi0atWq2jrVHfanpqbinXfewerVq9G4cWObx0gMf42eeeYZPPPMM7VWz9nZGWPGjKn1K9CUzvcrpaSkyG419vT0VHx5bHUn/ObPn4+WLVta9cTj6l5EZs2ahaCgIPzjH/9QNEZi+B2G2ncljh49KmsruQuwkukeOzs7GwaDAUlJSVi/fj32799v1TUMVe359+/fj127diEpKUnV9Qii45zfQagNv+kjyvz8/BSPxd3dXXbuoqKiAllZWXjxxRfxt7/9zeqHl5ju+QsKClBQUICXXnoJ06ZNq/LyaLIOw+8ALN2/b2t4Tff8tpwvsMQ0uG+88QZSUlKwbNkyq2u4urqaXV48b9485OXl4c0331Q1PmL4HYLa+X5eXp7ZGfmqLjL6+OOPrbqYxvTFY+3atViwYIHN0wnTF5G1a9di6dKlii6CIjmG3wGYHrIrvQrxTpbOoN+6dQsxMTGyax+qYhratm3bYu7cuTaPw7ROr169MGnSJJvrkDmG386VlpaafSyVrTceNW3a1GyaYOnz/mJjY5GVlYWoqKgaa5qGdvny5VZ99p+pO48gNBoNVq5cqfgiKJLj2X4789NPPyE+Ph4lJSXIycnB/v37zR5zPWvWLAQHB6Nx48bw9fXFhAkTaqz71ltvYfz48cb2uXPnZD+Pi4tDZGQk5s+fj4CAgBrr3RnaRx55BI8++miNfSy580Vk8uTJiu6oJMsYfjuzceNGrFmzBo0aNcI999wDZ2dndOjQAdLtj16DwWDAL7/8gpMnT+LGjRtwc3PDY489VuN9+ePGjcPVq1fxz3/+E+Xl5di9ezcWLlyIzp07Iy4uDhs3bsRrr72GmJgYq8ZZGX4XFxdVT9CtvBDIyyFqBYIAAAEpSURBVMvL7LZfUkntZ4SJ9Fl9IkhLS5Pmz58vhYeHS+3bt5f8/Pyk4cOHS7t377apzvnz56XOnTtLn3zyiarxJCYmSl26dJG2b9+uqo6jU/JZfdzzk8x9992HpUuXqq7TqVMn/Prrr6rr9O7dGykpKarrkDmeOSESFMNPJCiGn0hQDD+RoBh+IkEx/ESCYviJBMXwEwmK4ScSFMNPJCiGn0hQDD+RoBh+IkEx/ESCYviJBMXwEwmK4ScSFMNPJKg6eYzX119/LfvEV6Wio6PRpk2bWhgR0d1p69at2LNnj+o6V65csblPnYQ/OTkZycnJquvMmDGD4SeH9tNPP2HDhg0Nsm0e9hMJiuEnEhTDTyQojSRZ8amLRORwuOcnEhTDTyQohp9IUP8HmyfbozCq8fQAAAAASUVORK5CYII=;" vertex="1" parent="1">
          <mxGeometry x="740" y="204" width="60.4" height="90" as="geometry" />
        </mxCell>
        <mxCell id="g_PjMVmaI1N2kzE9wR9C-22" value="&lt;font color=&quot;#000000&quot;&gt;k&lt;/font&gt;" style="text;html=1;align=center;verticalAlign=middle;resizable=0;points=[];autosize=1;strokeColor=none;fillColor=none;" vertex="1" parent="1">
          <mxGeometry x="35" y="131.99999999999997" width="24" height="26" as="geometry" />
        </mxCell>
      </root>
    </mxGraphModel>
  </diagram>
</mxfile>
